<svg xmlns="http://www.w3.org/2000/svg" width="24" height="24" viewBox="0 0 24 24">
  <g id="camera" transform="translate(-8.999 11)">
    <path id="path" d="M0,0H24V24H0ZM18.31,6l-2.76,5Z" transform="translate(8.999 -11)" fill="none"/>
    <g id="icon" transform="translate(10 -11)">
      <path id="Path_4" data-name="Path 4" d="M18.565,5.667H15.7l-.333-1A2.434,2.434,0,0,0,13.062,3H8.938a2.432,2.432,0,0,0-2.3,1.649l-.005.017-.334,1H3.434A2.437,2.437,0,0,0,1,8.1v9.8a2.437,2.437,0,0,0,2.435,2.432H18.567A2.437,2.437,0,0,0,21,17.9V8.1a2.437,2.437,0,0,0-2.435-2.432h0Zm1.1,12.232a1.1,1.1,0,0,1-1.1,1.1H3.434a1.1,1.1,0,0,1-1.1-1.1V8.1A1.1,1.1,0,0,1,3.434,7H6.778a.666.666,0,0,0,.631-.451v0L7.9,5.086A1.1,1.1,0,0,1,8.94,4.333h4.121a1.1,1.1,0,0,1,1.041.745l0,.008.486,1.457A.667.667,0,0,0,15.222,7h3.343a1.1,1.1,0,0,1,1.1,1.1h0Z"/>
      <path id="Path_5" data-name="Path 5" d="M13.5,10a5,5,0,1,0,5,5h0a5.006,5.006,0,0,0-5-5Zm0,8.667A3.667,3.667,0,1,1,17.167,15h0A3.671,3.671,0,0,1,13.5,18.667Z" transform="translate(-2.5 -2.333)"/>
      <path id="Path_6" data-name="Path 6" d="M26.333,11.667A.667.667,0,1,1,25.667,11,.667.667,0,0,1,26.333,11.667Z" transform="translate(-8 -2.667)"/>
    </g>
  </g>
</svg>
