<svg xmlns="http://www.w3.org/2000/svg" width="24" height="24" viewBox="0 0 24 24">
  <g id="camping-fire" transform="translate(-27.998 5)">
    <path id="path" d="M0,0H24V24H0ZM18.31,6l-2.76,5Z" transform="translate(27.998 -5)" fill="none"/>
    <g id="icon" transform="translate(28 -3)">
      <path id="Path_19" data-name="Path 19" d="M9.816,24.028l-4.96-1.984a.625.625,0,0,0-.464,1.161l3.741,1.5,1.683-.673Z" transform="translate(0 -8.25)"/>
      <path id="Path_20" data-name="Path 20" d="M19.7,22.394a.626.626,0,0,0-.812-.349l-12.5,5a.625.625,0,0,0,.232,1.206.616.616,0,0,0,.232-.044l5.393-2.157,5.393,2.157a.616.616,0,0,0,.232.044.625.625,0,0,0,.232-1.206l-4.174-1.669,5.424-2.169A.625.625,0,0,0,19.7,22.394Z" transform="translate(-0.75 -8.25)"/>
      <path id="Path_21" data-name="Path 21" d="M12.25,15A6.036,6.036,0,0,0,18.5,9.219c0-4.106-4.17-8.384-6-9.168a.624.624,0,0,0-.871.574c0,2.366-1.327,3.274-2.732,4.234C7.538,5.788,6,6.839,6,9.219A6.036,6.036,0,0,0,12.251,15ZM11,12.5a3.436,3.436,0,0,1,.874-1.969,3.051,3.051,0,0,0,1,1.073c.443.33.622.481.622.9a1.25,1.25,0,1,1-2.5,0ZM9.6,5.893c1.342-.919,2.841-1.944,3.2-4.207,1.737,1.3,4.454,4.571,4.454,7.535a4.478,4.478,0,0,1-2.6,3.952,2.48,2.48,0,0,0,.1-.671,2.229,2.229,0,0,0-1.125-1.9c-.452-.337-.75-.56-.75-1.227a.625.625,0,0,0-.889-.567A4.844,4.844,0,0,0,9.75,12.5a2.456,2.456,0,0,0,.1.671,4.478,4.478,0,0,1-2.6-3.952C7.25,7.5,8.287,6.789,9.6,5.893Z" transform="translate(-0.751 0)"/>
    </g>
  </g>
</svg>
