<!-- Generated by IcoMoon.io -->
<svg version="1.1" xmlns="http://www.w3.org/2000/svg" width="32" height="32" viewBox="0 0 32 32">
<title>card_gift</title>
<path d="M26.667 8.667c1.48 0 2.667 1.187 2.667 2.667v14.667c0 1.48-1.187 2.667-2.667 2.667h-21.333c-1.48 0-2.667-1.187-2.667-2.667l0.013-14.667c0-1.48 1.173-2.667 2.653-2.667h2.907c-0.147-0.413-0.24-0.867-0.24-1.333 0-2.213 1.787-4 4-4 1.4 0 2.613 0.72 3.333 1.787l0.667 0.907 0.667-0.893c0.72-1.080 1.933-1.8 3.333-1.8 2.213 0 4 1.787 4 4 0 0.467-0.093 0.92-0.24 1.333h2.907zM20 6c-0.733 0-1.333 0.6-1.333 1.333s0.6 1.333 1.333 1.333c0.733 0 1.333-0.6 1.333-1.333s-0.6-1.333-1.333-1.333zM13.333 7.333c0-0.733-0.6-1.333-1.333-1.333s-1.333 0.6-1.333 1.333 0.6 1.333 1.333 1.333c0.733 0 1.333-0.6 1.333-1.333zM26.667 26v-2.667h-21.333v2.667h21.333zM5.333 19.333h21.333v-8h-6.773l2.773 3.773-2.16 1.56-4.507-6.133-4.507 6.133-2.16-1.56 2.773-3.773h-6.773v8z"></path>
</svg>
