<svg xmlns="http://www.w3.org/2000/svg" width="24" height="24" viewBox="0 0 24 24">
  <g id="email_me" transform="translate(-312 -334)">
    <path id="path" d="M0,0H24V24H0ZM18.31,6l-2.76,5Z" transform="translate(312 334)" fill="none"/>
    <path id="email_me-2" data-name="email_me" d="M20.886,9.522a10,10,0,1,0-19.8,2.766l-.006-.053A10.067,10.067,0,0,0,9.6,20.814l.054.007A10.079,10.079,0,0,0,11,20.907h.023a9.869,9.869,0,0,0,5.166-1.45l-.043.025a.665.665,0,1,0-.69-1.136h0a8.62,8.62,0,1,1,3.617-4.28l.02-.059a1.432,1.432,0,0,1-2.771-.5V6.286a.666.666,0,0,0-1.333,0h0V7.433a5.317,5.317,0,1,0,.126,6.871l.007-.009a2.758,2.758,0,0,0,5.211.2l.007-.019a9.9,9.9,0,0,0,.646-3.552,10.2,10.2,0,0,0-.1-1.457l.007.054Zm-9.9,5.4a3.988,3.988,0,1,1,4-3.988h0a4,4,0,0,1-4,3.988Z" transform="translate(313.015 335.093)"/>
  </g>
</svg>
