<svg xmlns="http://www.w3.org/2000/svg" width="24" height="24" viewBox="0 0 24 24">
  <g id="fishing" transform="translate(-0.924 10.385)">
    <path id="path" d="M0,0H24V24H0ZM18.31,6l-2.76,5Z" transform="translate(0.924 -10.385)" fill="none"/>
    <g id="icon" transform="translate(3 -9)">
      <path id="Path_7" data-name="Path 7" d="M21.454,15.592A11.171,11.171,0,0,0,20.5.8a.627.627,0,0,0-.881,0,11.167,11.167,0,0,0-.955,14.794l-2.275,4.095a.626.626,0,0,0,.779.885l2.891-1.158,2.892,1.158a.661.661,0,0,0,.233.044.625.625,0,0,0,.546-.929l-2.275-4.095ZM20.058,2.15a9.849,9.849,0,0,1,2.256,4.433,10,10,0,0,1-4.512,0A9.846,9.846,0,0,1,20.058,2.15Zm-2.5,6.591c0-.311.015-.62.042-.926a11.282,11.282,0,0,0,2.458.3,11.282,11.282,0,0,0,2.458-.3c.027.306.042.615.042.926a9.848,9.848,0,0,1-2.3,6.337.571.571,0,0,0-.092.114c-.039.045-.072.095-.112.14-.04-.045-.073-.094-.112-.14a.594.594,0,0,0-.092-.114A9.846,9.846,0,0,1,17.558,8.74Zm2.732,9.419a.621.621,0,0,0-.463,0l-1.491.6,1.2-2.161c.029.029.053.06.081.089a.619.619,0,0,0,.44.181.626.626,0,0,0,.441-.181c.029-.029.053-.06.081-.089l1.2,2.161-1.491-.6Z" transform="translate(-5.385 -0.001)"/>
      <path id="Path_8" data-name="Path 8" d="M22.737,6.385h-.012a.62.62,0,0,0-.619.625.628.628,0,1,0,.631-.625Z" transform="translate(-7.414 -2.02)"/>
      <path id="Path_9" data-name="Path 9" d="M8.423,6.98V1.24a.625.625,0,1,0-1.25,0V6.98a1.864,1.864,0,0,0,0,3.52v6.365a2.5,2.5,0,1,1-5,0V15.193l.82.776a.626.626,0,0,0,.859-.909L1.978,13.284a.625.625,0,0,0-1.054.455v3.125a3.75,3.75,0,0,0,7.5,0V10.5a1.864,1.864,0,0,0,0-3.52ZM7.8,9.365a.625.625,0,1,1,.625-.625A.626.626,0,0,1,7.8,9.365Z" transform="translate(0)"/>
    </g>
  </g>
</svg>
