<!-- Generated by IcoMoon.io -->
<svg version="1.1" xmlns="http://www.w3.org/2000/svg" width="32" height="32" viewBox="0 0 32 32">
<title>follow_the_signs</title>
<path d="M12.667 7.333c1.467 0 2.667-1.2 2.667-2.667s-1.2-2.667-2.667-2.667-2.667 1.2-2.667 2.667 1.2 2.667 2.667 2.667zM7.667 11.867l-3.667 18.8h2.8l2.333-10.667 2.867 2.667v8h2.667v-10.067l-2.733-2.733 0.8-4c1.733 2.133 4.333 3.467 7.267 3.467v-2.667c-2.467 0-4.6-1.333-5.8-3.267l-1.267-2.133c-0.467-0.8-1.333-1.267-2.267-1.267-0.333 0-0.667 0.067-1 0.2l-7 2.867v6.267h2.667v-4.467l2.333-1zM17.333 2.667v9.333h5v18.667h2v-18.667h5v-9.333h-12zM24.013 10.667v-2.333h-4.68v-2h4.68v-2.333l3.32 3.333-3.32 3.333z"></path>
</svg>
