<svg xmlns="http://www.w3.org/2000/svg" width="24" height="24" viewBox="0 0 24 24">
  <g id="hotel" transform="translate(-213 -288)">
    <path id="path" d="M0,0H24V24H0ZM18.31,6l-2.76,5Z" transform="translate(213 288)" fill="none"/>
    <path id="hotel-2" data-name="hotel" d="M17.727,8.587V3.026A2.053,2.053,0,0,0,15.676.975H4.326A2.053,2.053,0,0,0,2.275,3.026V8.587A2.973,2.973,0,0,0,0,11.473v4.148a.6.6,0,0,0,.6.6H2.275v1.441a.6.6,0,1,0,1.191,0V16.217H16.535v1.441a.6.6,0,0,0,1.191,0V16.217h1.679a.6.6,0,0,0,.6-.6V11.473a2.973,2.973,0,0,0-2.274-2.886ZM3.467,3.026a.86.86,0,0,1,.859-.859h11.35a.86.86,0,0,1,.859.859V8.5H14.566v-.94A2.828,2.828,0,0,0,11.742,4.74H8.261A2.828,2.828,0,0,0,5.436,7.564V8.5H3.467V3.026Zm9.908,4.539V8.5H6.628v-.94A1.635,1.635,0,0,1,8.261,5.932h3.481a1.635,1.635,0,0,1,1.633,1.633ZM1.192,15.025V11.473A1.779,1.779,0,0,1,2.969,9.7H17.033a1.779,1.779,0,0,1,1.777,1.777v3.552H1.192Z" transform="translate(214.999 290.025)"/>
  </g>
</svg>
