<svg xmlns="http://www.w3.org/2000/svg" width="24" height="24" viewBox="0 0 24 24">
  <g id="kayak" transform="translate(-249 -310)">
    <path id="path" d="M0,0H24V24H0ZM18.31,6l-2.76,5Z" transform="translate(249 310)" fill="none"/>
    <path id="kayak-2" data-name="kayak" d="M19.826,16.879l-2.242-2.242a2.086,2.086,0,0,0-2.464-.36l-1.632-1.632a23.95,23.95,0,0,0,4.543-7.231,22.959,22.959,0,0,0,1.261-3.977.6.6,0,0,0-.7-.7A23.006,23.006,0,0,0,14.618,2,23.95,23.95,0,0,0,7.387,6.544L5.724,4.882a2.086,2.086,0,0,0-.36-2.464L3.122.175a.6.6,0,0,0-.842,0L.175,2.28a.6.6,0,0,0,0,.842L2.417,5.364a2.087,2.087,0,0,0,2.465.36L6.545,7.387A23.95,23.95,0,0,0,2,14.618,23.065,23.065,0,0,0,.74,18.595a.6.6,0,0,0,.584.707.624.624,0,0,0,.112-.011,23.025,23.025,0,0,0,3.977-1.261,23.95,23.95,0,0,0,7.231-4.543l1.632,1.632a2.084,2.084,0,0,0,.36,2.465l2.242,2.242a.595.595,0,0,0,.841,0l2.105-2.105a.6.6,0,0,0,0-.842ZM4.522,4.522a.893.893,0,0,1-1.264,0L1.437,2.7,2.7,1.437,4.521,3.259a.893.893,0,0,1,0,1.264Zm.47,12.395a25,25,0,0,1-2.856.979,25,25,0,0,1,.979-2.856A22.753,22.753,0,0,1,7.387,8.228l.805.805a4.222,4.222,0,0,0-.762,1.408,1.786,1.786,0,0,0,.321,1.841,1.551,1.551,0,0,0,1.129.434A3.539,3.539,0,0,0,11,11.841l.8.8a22.761,22.761,0,0,1-6.812,4.272Zm5.158-5.926a2.938,2.938,0,0,1-.894.469.751.751,0,0,1-.663-.021.754.754,0,0,1-.021-.663,2.938,2.938,0,0,1,.469-.894l1.109,1.109ZM9.882,9.04a2.938,2.938,0,0,1,.894-.469,1.39,1.39,0,0,1,.379-.061.4.4,0,0,1,.283.082.753.753,0,0,1,.021.662,2.938,2.938,0,0,1-.469.894L9.882,9.04ZM12.645,11.8l-.8-.8C12.8,9.8,13,8.472,12.282,7.75s-2.055-.518-3.249.441l-.8-.8A22.761,22.761,0,0,1,15.04,3.114,24.928,24.928,0,0,1,17.9,2.135a23.976,23.976,0,0,1-5.25,9.668ZM17.3,18.564l-1.821-1.821a.893.893,0,0,1,1.263-1.263L18.564,17.3Z" transform="translate(250.999 311.999)"/>
  </g>
</svg>
