<svg xmlns="http://www.w3.org/2000/svg" width="24" height="24" viewBox="0 0 24 24">
  <g id="location" transform="translate(-11.983 -15)">
    <path id="path" d="M0,0H24V24H0ZM18.31,6l-2.76,5Z" transform="translate(11.983 15)" fill="none"/>
    <g id="icon" transform="translate(12 17)">
      <path id="Path_15" data-name="Path 15" d="M12.127,0A7.1,7.1,0,0,0,4.983,7.031a6.937,6.937,0,0,0,1.066,3.7l5.671,8.994a.6.6,0,0,0,.506.277h0a.6.6,0,0,0,.506-.285l5.526-9.081a6.938,6.938,0,0,0,1.007-3.6A7.1,7.1,0,0,0,12.127,0Zm5.114,10.032-5.024,8.257L7.062,10.111a5.785,5.785,0,0,1-.9-3.08,5.959,5.959,0,0,1,11.918,0,5.788,5.788,0,0,1-.843,3Z"/>
      <path id="Path_16" data-name="Path 16" d="M14.27,5.625a3.516,3.516,0,1,0,3.572,3.516A3.548,3.548,0,0,0,14.27,5.625Zm0,5.867a2.352,2.352,0,1,1,2.385-2.352,2.373,2.373,0,0,1-2.385,2.352Z" transform="translate(-2.143 -2.109)"/>
    </g>
  </g>
</svg>
