<svg xmlns="http://www.w3.org/2000/svg" width="24" height="24" viewBox="0 0 24 24">
  <g id="museum" transform="translate(-3.778 5)">
    <path id="path" d="M0,0H24V24H0ZM18.31,6l-2.76,5Z" transform="translate(3.778 -5)" fill="none"/>
    <g id="icon" transform="translate(6 -4)">
      <path id="Path_10" data-name="Path 10" d="M.778,1V21H18.556V1H.778ZM17.371,19.828H12.63V18.149h4.741Zm0-2.851H11.445v2.851H1.963V2.172H17.371v14.8Z"/>
      <path id="Path_11" data-name="Path 11" d="M16.778,10.141a6.536,6.536,0,0,0-5.333,2.744V10.343A5.3,5.3,0,0,0,16.185,5.1V4.516h-.593a5.346,5.346,0,0,0-4.741,2.859A5.346,5.346,0,0,0,6.111,4.516H5.518V5.1a5.3,5.3,0,0,0,4.741,5.241v2.542a6.538,6.538,0,0,0-5.333-2.744H4.333v.586a6.483,6.483,0,0,0,5.926,6.419v2.683h1.185V17.145a6.483,6.483,0,0,0,5.926-6.419v-.586Zm-1.827-4.4a4.134,4.134,0,0,1-3.456,3.417A4.135,4.135,0,0,1,14.95,5.737Zm-8.2,0a4.135,4.135,0,0,1,3.456,3.417A4.135,4.135,0,0,1,6.753,5.737Zm-1.2,5.613a5.314,5.314,0,0,1,4.667,4.615A5.314,5.314,0,0,1,5.556,11.349Zm5.925,4.614a5.314,5.314,0,0,1,4.667-4.615A5.314,5.314,0,0,1,11.481,15.963Z" transform="translate(-1.185 -1.172)"/>
    </g>
  </g>
</svg>
