<svg xmlns="http://www.w3.org/2000/svg" width="24" height="24" viewBox="0 0 24 24">
  <g id="payment" transform="translate(-55.146 -3.391)">
    <path id="path" d="M0,0H24V24H0ZM18.31,6l-2.76,5Z" transform="translate(55.146 3.391)" fill="none"/>
    <g id="icon" transform="translate(57 4)">
      <path id="Path_17" data-name="Path 17" d="M10.148,3.682a7.863,7.863,0,0,0-10,7.474,7.864,7.864,0,0,0,10,7.474,7.861,7.861,0,0,0,10-7.474,7.861,7.861,0,0,0-10-7.474ZM1.323,11.156a6.66,6.66,0,0,1,6.81-6.6,7.7,7.7,0,0,0,0,13.2,6.66,6.66,0,0,1-6.81-6.6Zm10.947,6.6a6.658,6.658,0,0,1-6.7-6.6,6.7,6.7,0,0,1,13.4,0A6.659,6.659,0,0,1,12.27,17.758Z" transform="translate(0 0)"/>
      <path id="Path_18" data-name="Path 18" d="M18.846,12.423H17.178a.9.9,0,1,1,0-1.792h1.609a1.285,1.285,0,0,1,.91.405.594.594,0,0,0,.831.026.573.573,0,0,0,.027-.819A2.5,2.5,0,0,0,18.6,9.472V8.778a.588.588,0,0,0-1.176,0v.695a2.064,2.064,0,1,0-.246,4.11h1.668a.9.9,0,1,1,0,1.792H17.092a1.284,1.284,0,0,1-.709-.235.594.594,0,0,0-.818.146.575.575,0,0,0,.148.807,2.646,2.646,0,0,0,1.711.442v.695a.588.588,0,0,0,1.176,0v-.695a2.064,2.064,0,1,0,.246-4.11Z" transform="translate(-5.741 -1.847)"/>
    </g>
  </g>
</svg>
