<svg xmlns="http://www.w3.org/2000/svg" width="24" height="24" viewBox="0 0 24 24">
  <g id="phone-call" transform="translate(21.979 2)">
    <path id="path" d="M0,0H24V24H0ZM18.31,6l-2.76,5Z" transform="translate(-21.979 -2)" fill="none"/>
    <g id="icon" transform="translate(-20)">
      <path id="Path_12" data-name="Path 12" d="M15.837,13.083a1.971,1.971,0,0,0-1.429-.654,2.038,2.038,0,0,0-1.446.65l-1.336,1.329c-.11-.059-.22-.114-.325-.169-.152-.076-.3-.147-.419-.224A14.508,14.508,0,0,1,7.4,10.85a8.554,8.554,0,0,1-1.142-1.8c.347-.317.668-.646.981-.962.118-.118.237-.241.355-.359a1.935,1.935,0,0,0,0-2.921L6.443,3.657c-.131-.131-.266-.266-.393-.4-.253-.262-.52-.532-.795-.785A2,2,0,0,0,3.839,1.85,2.07,2.07,0,0,0,2.4,2.471l-.009.009L.956,3.927A3.085,3.085,0,0,0,.039,5.891,7.387,7.387,0,0,0,.58,9.022a18.172,18.172,0,0,0,3.234,5.386,19.885,19.885,0,0,0,6.624,5.179,10.338,10.338,0,0,0,3.72,1.1c.089,0,.182.009.266.009a3.189,3.189,0,0,0,2.439-1.047c0-.009.013-.013.017-.021a9.576,9.576,0,0,1,.74-.764c.182-.173.368-.354.55-.544a2.1,2.1,0,0,0,.638-1.461,2.029,2.029,0,0,0-.651-1.448l-2.321-2.326Zm1.513,4.445s0,0,0,0c-.165.177-.334.337-.516.515a11.051,11.051,0,0,0-.816.844,2.04,2.04,0,0,1-1.589.671c-.063,0-.131,0-.195,0a9.181,9.181,0,0,1-3.3-.987A18.784,18.784,0,0,1,4.7,13.687,17.133,17.133,0,0,1,1.655,8.626a6.014,6.014,0,0,1-.473-2.642A1.938,1.938,0,0,1,1.765,4.73L3.206,3.291a.961.961,0,0,1,.643-.3.906.906,0,0,1,.617.3l.013.012c.258.241.5.489.761.756.131.135.266.27.4.409L6.8,5.616a.805.805,0,0,1,0,1.309c-.123.122-.241.245-.364.363-.355.363-.693.7-1.061,1.03-.009.009-.017.012-.021.021a.859.859,0,0,0-.22.958c0,.012.009.026.013.038A9.257,9.257,0,0,0,6.508,11.56l0,0a15.508,15.508,0,0,0,3.753,3.411,5.886,5.886,0,0,0,.52.283c.152.076.3.147.419.224.017.009.034.021.051.029a.917.917,0,0,0,.419.106.9.9,0,0,0,.643-.291l1.446-1.444a.956.956,0,0,1,.638-.317.862.862,0,0,1,.609.308l.009.009,2.329,2.326a.834.834,0,0,1,0,1.321Z" transform="translate(0 -0.694)"/>
      <path id="Path_13" data-name="Path 13" d="M17.013,6.934a5.437,5.437,0,0,1,4.43,4.424.566.566,0,0,0,.562.472.727.727,0,0,0,.1-.009.571.571,0,0,0,.469-.659A6.572,6.572,0,0,0,17.212,5.81a.574.574,0,0,0-.66.464.564.564,0,0,0,.461.659Z" transform="translate(-6.181 -2.176)"/>
      <path id="Path_14" data-name="Path 14" d="M26.291,8.822A10.822,10.822,0,0,0,17.465.009a.569.569,0,1,0-.186,1.123,9.668,9.668,0,0,1,7.887,7.876.566.566,0,0,0,.562.472.727.727,0,0,0,.1-.009.559.559,0,0,0,.465-.65Z" transform="translate(-6.278 0)"/>
    </g>
  </g>
</svg>
