<!-- Generated by IcoMoon.io -->
<svg version="1.1" xmlns="http://www.w3.org/2000/svg" width="32" height="32" viewBox="0 0 32 32">
<title>pointer</title>
<path d="M26.546 17.47h-7.117c-0.392-1.152-1.483-1.984-2.766-1.984s-2.375 0.832-2.766 1.984h-5.201c-1.14 0-2.068-0.928-2.068-2.068s0.927-2.066 2.066-2.066h17.631c0.58 0 1.14-0.244 1.535-0.669 1.889-2.033 4.141-4.896 4.141-6.992 0-3.129-2.546-5.674-5.676-5.674s-5.676 2.546-5.676 5.674c0 1.708 1.494 3.924 3.070 5.786h-15.025c-2.173 0-3.941 1.768-3.941 3.941s1.769 3.943 3.943 3.943h5.201c0.392 1.152 1.483 1.984 2.766 1.984s2.375-0.832 2.766-1.984h7.117c1.973 0 3.579 1.605 3.579 3.579s-1.605 3.579-3.579 3.579h-3.107c-0.392-1.152-1.483-1.984-2.766-1.984s-2.375 0.832-2.766 1.984h-8.882c-0.434-2.066-2.27-3.622-4.464-3.622-2.515 0-4.561 2.046-4.561 4.56s2.046 4.56 4.561 4.56c2.194 0 4.030-1.556 4.464-3.622h8.882c0.392 1.152 1.483 1.984 2.766 1.984s2.375-0.832 2.766-1.984h3.107c3.007 0 5.454-2.447 5.454-5.454s-2.447-5.454-5.454-5.454zM26.324 1.875c2.096 0 3.801 1.704 3.801 3.799 0 1.11-1.394 3.3-3.639 5.716-0.054 0.058-0.118 0.071-0.162 0.071s-0.107-0.012-0.162-0.071c-2.245-2.415-3.639-4.605-3.639-5.716 0-2.095 1.705-3.799 3.801-3.799zM16.663 19.454c-0.577 0-1.047-0.47-1.047-1.047s0.47-1.047 1.047-1.047 1.047 0.47 1.047 1.047-0.469 1.047-1.047 1.047zM4.561 30.125c-1.481 0-2.686-1.204-2.686-2.685s1.205-2.685 2.686-2.685 2.686 1.204 2.686 2.685-1.205 2.685-2.686 2.685zM20.673 28.487c-0.577 0-1.047-0.47-1.047-1.047s0.47-1.047 1.047-1.047 1.047 0.47 1.047 1.047-0.469 1.047-1.047 1.047z"></path>
<path d="M27.262 5.73c-0.023-0.508-0.412-0.938-0.938-0.938-0.49 0-0.96 0.431-0.938 0.938 0.023 0.508 0.412 0.938 0.938 0.938 0.49 0 0.96-0.431 0.938-0.938z"></path>
</svg>
