<!-- Generated by IcoMoon.io -->
<svg version="1.1" xmlns="http://www.w3.org/2000/svg" width="32" height="32" viewBox="0 0 32 32">
<title>restaurant</title>
<path d="M16.166 8.635l-1.209-8.067c-0.048-0.328-0.329-0.568-0.659-0.568-0.007 0-0.015 0-0.023 0-0.337 0.011-0.613 0.273-0.641 0.611l-0.584 7.003c-0.036 0.432-0.803 0.432-0.839 0l-0.584-7.003c-0.028-0.345-0.317-0.611-0.664-0.611s-0.636 0.265-0.663 0.611l-0.584 7.003c-0.036 0.432-0.803 0.432-0.839 0l-0.584-7.003c-0.028-0.336-0.304-0.599-0.641-0.611-0.008 0-0.016 0-0.023 0-0.329 0-0.611 0.24-0.66 0.568l-1.209 8.067c-0.355 2.364 0.928 4.624 3.091 5.568l-1.029 14.427c-0.061 0.868 0.243 1.731 0.836 2.368 0.592 0.637 1.432 1.003 2.308 1.003 0.871 0 1.711-0.365 2.304-1.003s0.897-1.5 0.836-2.368l-1.029-14.427c2.163-0.943 3.445-3.204 3.089-5.568zM12.169 13.121c-0.292 0.095-0.481 0.376-0.46 0.681l1.064 14.921c0.037 0.507-0.133 0.992-0.48 1.364-0.691 0.743-1.963 0.751-2.661 0-0.345-0.372-0.516-0.856-0.48-1.364l1.065-14.923c0.020-0.305-0.168-0.587-0.46-0.681-1.835-0.593-2.961-2.397-2.677-4.288l0.361-2.408 0.108 1.301c0.075 0.901 0.843 1.608 1.748 1.608 0.767 0 1.435-0.507 1.667-1.211 0.232 0.704 0.9 1.211 1.667 1.211 0.904 0 1.673-0.707 1.748-1.607l0.108-1.301 0.361 2.408c0.284 1.891-0.843 3.695-2.679 4.288z"></path>
<path d="M26.015 0.122c-0.176-0.125-0.403-0.155-0.607-0.084-0.057 0.020-5.777 2.121-5.777 8.628 0 4.684 1.523 7.049 2.381 8.009l-0.853 0.853c-0.109 0.109-0.177 0.252-0.192 0.405l-1.055 10.548c-0.092 0.897 0.204 1.796 0.809 2.465s1.471 1.053 2.373 1.053c1.765 0 3.201-1.436 3.203-3.201v-28.133c0-0.216-0.105-0.419-0.283-0.544zM24.962 28.8c0 1.029-0.837 1.867-1.867 1.867-0.533 0-1.025-0.219-1.384-0.615s-0.527-0.907-0.473-1.437l1.031-10.311 1.164-1.165c0.137-0.137 0.205-0.329 0.191-0.523s-0.115-0.373-0.271-0.489c-0.024-0.017-2.391-1.835-2.391-7.46 0-4.119 2.585-6.145 4-6.945v27.078z"></path>
</svg>
