<svg xmlns="http://www.w3.org/2000/svg" width="24" height="24" viewBox="0 0 24 24">
  <g id="river_road" transform="translate(-278 -311)">
    <path id="path" d="M0,0H24V24H0ZM18.31,6l-2.76,5Z" transform="translate(278 311)" fill="none"/>
    <path id="river_road-2" data-name="river_road" d="M18.59,9.252,15.179,5.017a.454.454,0,0,0-.7,0l-1.4,1.741L8.261.781a.454.454,0,0,0-.7,0L.736,9.251a.57.57,0,0,0-.079.564.472.472,0,0,0,.431.31h3.4v.307a.5.5,0,0,0,.472.525H6.8V14.92h.742c-1.474.044-3.069.024-4.46.006C2.255,14.915,1.474,14.9.728,14.9v1.048c.74,0,1.518.01,2.342.021,5.238.068,8.755.021,9.859-1.19a1.375,1.375,0,0,0,.368-.937c0-.707-.585-1-1.055-1.233-.544-.271-.81-.441-.827-.784.21-.35,1.5-.79,3.27-1.163a1.5,1.5,0,0,0-.453,1.022c0,.788.761.959,1.5,1.126,1.123.253,1.86.489,1.86,1.421a2.935,2.935,0,0,1-.861,2.079C13.241,20.035,1.053,19.542.93,19.536L.893,20.584c.108,0,.731.031,1.683.031,3.582,0,11.822-.361,14.8-3.544a4.041,4.041,0,0,0,1.151-2.835c0-1.858-1.637-2.227-2.615-2.449a4.843,4.843,0,0,1-.717-.2c.19-.43,1.505-1.1,2.91-1.462h.132a.472.472,0,0,0,.431-.31.57.57,0,0,0-.079-.564ZM5.428,9.909V8.772H9.336l.393.569-.393.568H5.427Zm5.041,1.886a1.972,1.972,0,0,0,1.386,1.776,2.2,2.2,0,0,1,.5.3.286.286,0,0,1-.087.17c-.529.58-2.378.8-4.522.875V10.958H9.568a.458.458,0,0,0,.374-.2l.433-.627h2.212c-1.822.573-2.12,1.137-2.12,1.669Zm.261-2.718c-.01-.019-.02-.038-.032-.056L9.943,7.928a.457.457,0,0,0-.374-.2H7.743V7.145H6.8v.578H4.956a.5.5,0,0,0-.472.525v.829H2.143L7.909,1.918l4.813,5.976a.454.454,0,0,0,.7,0l1.4-1.741,2.355,2.925H10.73Z" transform="translate(280.384 312.385)"/>
  </g>
</svg>
