<svg xmlns="http://www.w3.org/2000/svg" width="24" height="24" viewBox="0 0 24 24">
  <g id="river" transform="translate(-258 -354)">
    <path id="path" d="M0,0H24V24H0ZM18.31,6l-2.76,5Z" transform="translate(258 354)" fill="none"/>
    <path id="river-2" data-name="river" d="M11.3,10.059a2.059,2.059,0,0,0-.318-.768,1.076,1.076,0,0,1,.056-1.217.54.54,0,0,1,.911.075,4.035,4.035,0,0,1,.6,1.493c.1.543-.206,1.071-.627,1.071a.713.713,0,0,1-.626-.654Zm1.041-4.8c-.589-.437-1.257-.933-1.256-1.271,0-.1.077-.969,2.7-2.264h5.571c.356,0,.645-.386.645-.862S19.711,0,19.355,0H.645C.289,0,0,.385,0,.861s.289.862.645.862H6.734A3.948,3.948,0,0,0,5.081,4.66c-.068,2.825,3.5,3.7,3.715,5.905.145,1.477-1.363,3.546-4.245,5.828a1.038,1.038,0,0,0-.227,1.181.564.564,0,0,0,.884.3c3.5-2.771,5.093-5.236,4.867-7.535A5.825,5.825,0,0,0,7.764,6.608c-.692-.64-1.407-1.3-1.393-1.892.008-.33.289-1.514,3.534-2.991h.979A3.1,3.1,0,0,0,9.8,3.987C9.8,7.772,17.173,6.36,13.92,16.8c-.178.571.139,1.194.6,1.194a.672.672,0,0,0,.6-.531c1.105-3.55,1.2-6.467.292-8.67a8.17,8.17,0,0,0-3.058-3.538Zm.967,6.261c-.352-.068-.68.258-.731.73a10.848,10.848,0,0,1-.538,2.318c-.2.573.12,1.221.586,1.221a.663.663,0,0,0,.587-.5,12.991,12.991,0,0,0,.642-2.788.857.857,0,0,0-.546-.977Zm-1.584,4.77a.973.973,0,0,0-.33,1.455c.427.571,1.156.11,1.1-.694C12.461,16.551,12.108,16.191,11.728,16.29ZM3.911,7.705c0-.476-.289-.862-.645-.862H1.21c-.356,0-.645.386-.645.862s.289.862.645.862H3.266C3.622,8.568,3.911,8.182,3.911,7.705Zm2.419,3.718c0-.476-.289-.862-.645-.862H2.459c-.356,0-.645.386-.645.862s.289.862.645.862H5.685c.356,0,.645-.386.645-.862Zm9.032-8.245c-.356,0-.645.386-.645.862s.289.862.645.862h2.7c.356,0,.645-.386.645-.862s-.289-.862-.645-.862h-2.7Zm3.992,4.473H17.983c-.356,0-.645.386-.645.862s.289.862.645.862h1.371c.356,0,.645-.386.645-.862S19.71,7.651,19.354,7.651Zm-1.209,4.526h-.484c-.356,0-.645.386-.645.862s.289.862.645.862h.484c.356,0,.645-.386.645-.862s-.289-.862-.645-.862Z" transform="translate(260 357.001)"/>
  </g>
</svg>
