<!-- Generated by IcoMoon.io -->
<svg version="1.1" xmlns="http://www.w3.org/2000/svg" width="27" height="32" viewBox="0 0 27 32">
<title>salling</title>
<path d="M25.929 24.585h-11.181v-2.585h11.183c0.327 0 0.627-0.193 0.773-0.5s0.114-0.672-0.084-0.945l-11.872-16.429v-2.61c0-0.498-0.386-0.901-0.863-0.901-1.564 0-3.106 0.848-4.583 2.522-1.206 1.367-2.341 3.245-3.373 5.581-1.796 4.066-3.050 9.142-3.050 12.345 0 0.498 0.386 0.902 0.863 0.902h9.28v2.62h-11.616c-0.336 0-0.641 0.203-0.782 0.521s-0.094 0.693 0.122 0.961l4.026 4.996c0.164 0.203 0.406 0.321 0.66 0.321h16.47c0.255 0 0.496-0.118 0.66-0.321l4.026-4.996c0.216-0.268 0.264-0.643 0.122-0.961s-0.447-0.521-0.783-0.521zM14.749 20.197v-13.078l9.45 13.077-9.45 0zM7.497 9.474c1.711-3.872 3.68-6.319 5.525-6.914v17.602h-8.385c0.201-2.974 1.32-7.204 2.859-10.688zM21.502 29.582h-15.667l-2.573-3.194h20.814l-2.573 3.194z"></path>
</svg>
