<!-- Generated by IcoMoon.io -->
<svg version="1.1" xmlns="http://www.w3.org/2000/svg" width="32" height="32" viewBox="0 0 32 32">
<title>school</title>
<path d="M31.377 9.79c0.374-0.133 0.624-0.487 0.623-0.884s-0.251-0.751-0.626-0.883l-15.063-5.314c-0.202-0.071-0.422-0.071-0.624 0l-15.062 5.314c-0.374 0.132-0.625 0.486-0.626 0.883s0.249 0.751 0.624 0.884l5.967 2.121v6.115c0 1.009 1.053 1.863 3.13 2.537 1.81 0.588 4.040 0.911 6.28 0.911s4.47-0.324 6.28-0.911c2.077-0.674 3.13-1.527 3.13-2.537v-6.115l2.464-0.876v8.474c-1.096 0.387-1.883 1.433-1.883 2.66s0.787 2.272 1.883 2.66v3.58c0 0.518 0.42 0.938 0.938 0.938s0.938-0.42 0.938-0.938v-3.58c1.096-0.387 1.883-1.433 1.883-2.66s-0.787-2.272-1.883-2.66v-9.141l1.628-0.579zM28.811 23.114c-0.521 0-0.945-0.424-0.945-0.945s0.424-0.945 0.945-0.945c0.521 0 0.945 0.424 0.945 0.945s-0.424 0.945-0.945 0.945zM16 4.586l12.254 4.324-12.254 4.356-12.254-4.356 12.254-4.324zM23.535 17.885c-0.18 0.181-0.823 0.615-2.275 1.029-1.549 0.442-3.417 0.685-5.26 0.685s-3.711-0.243-5.26-0.685c-1.452-0.414-2.095-0.848-2.275-1.029v-5.308l7.221 2.567c0.102 0.036 0.208 0.054 0.314 0.054s0.212-0.018 0.314-0.054l7.221-2.567v5.308h0z"></path>
</svg>
