<!-- Generated by IcoMoon.io -->
<svg version="1.1" xmlns="http://www.w3.org/2000/svg" width="32" height="32" viewBox="0 0 32 32">
<title>settings</title>
<path d="M25.52 17.253c0.053-0.4 0.080-0.813 0.080-1.253 0-0.427-0.027-0.853-0.093-1.253l2.707-2.107c0.24-0.187 0.307-0.547 0.16-0.813l-2.56-4.427c-0.16-0.293-0.493-0.387-0.787-0.293l-3.187 1.28c-0.667-0.507-1.373-0.933-2.16-1.253l-0.48-3.387c-0.053-0.32-0.32-0.547-0.64-0.547h-5.12c-0.32 0-0.573 0.227-0.627 0.547l-0.48 3.387c-0.787 0.32-1.507 0.76-2.16 1.253l-3.187-1.28c-0.293-0.107-0.627 0-0.787 0.293l-2.547 4.427c-0.16 0.28-0.107 0.627 0.16 0.813l2.707 2.107c-0.067 0.4-0.12 0.84-0.12 1.253s0.027 0.853 0.093 1.253l-2.707 2.107c-0.24 0.187-0.307 0.547-0.16 0.813l2.56 4.427c0.16 0.293 0.493 0.387 0.787 0.293l3.187-1.28c0.667 0.507 1.373 0.933 2.16 1.253l0.48 3.387c0.067 0.32 0.32 0.547 0.64 0.547h5.12c0.32 0 0.587-0.227 0.627-0.547l0.48-3.387c0.787-0.32 1.507-0.747 2.16-1.253l3.187 1.28c0.293 0.107 0.627 0 0.787-0.293l2.56-4.427c0.16-0.293 0.093-0.627-0.16-0.813l-2.68-2.107zM16 20.8c-2.64 0-4.8-2.16-4.8-4.8s2.16-4.8 4.8-4.8 4.8 2.16 4.8 4.8-2.16 4.8-4.8 4.8z"></path>
</svg>
