<!-- Generated by IcoMoon.io -->
<svg version="1.1" xmlns="http://www.w3.org/2000/svg" width="32" height="32" viewBox="0 0 32 32">
<title>shopping_cart_empty</title>
<path d="M15.893 12v0-6.667zM10.56 24c-1.473 0-2.667 1.194-2.667 2.667s1.194 2.667 2.667 2.667c1.473 0 2.667-1.194 2.667-2.667v0c0-1.473-1.194-2.667-2.667-2.667v0zM23.893 24c-1.473 0-2.667 1.194-2.667 2.667s1.194 2.667 2.667 2.667c1.473 0 2.667-1.194 2.667-2.667v0c0-1.473-1.194-2.667-2.667-2.667v0zM10.787 19.667l0.040-0.16 1.2-2.173h9.933c0.002 0 0.005 0 0.008 0 0.996 0 1.864-0.549 2.318-1.36l0.007-0.013 5.147-9.347-2.32-1.28h-0.013l-1.467 2.667-3.68 6.667h-9.36l-0.173-0.36-2.987-6.307-1.267-2.667-1.253-2.667h-4.36v2.667h2.667l4.8 10.12-1.8 3.267c-0.21 0.365-0.333 0.802-0.333 1.268 0 0.004 0 0.009 0 0.013v-0.001c0.005 1.471 1.196 2.662 2.666 2.667h16v-2.667h-15.44c-0.183-0.003-0.33-0.15-0.333-0.333v-0z"></path>
</svg>
