<!-- Generated by IcoMoon.io -->
<svg version="1.1" xmlns="http://www.w3.org/2000/svg" width="32" height="32" viewBox="0 0 32 32">
<title>tent</title>
<path d="M31.939 24.868l-7.014-18.403c-0.139-0.363-0.487-0.604-0.876-0.604h-16.097c-0.389 0-0.737 0.24-0.876 0.604l-7.014 18.403c-0.11 0.288-0.071 0.612 0.104 0.866s0.464 0.406 0.772 0.406h30.125c0.308 0 0.597-0.152 0.772-0.406s0.214-0.578 0.104-0.866zM7.014 24.264h-4.716l4.716-12.374v12.374zM8.889 24.264v-12.374l4.716 12.374h-4.716zM15.612 24.264l-6.299-16.528h14.090l6.299 16.528h-14.090z"></path>
</svg>
