<!-- Generated by IcoMoon.io -->
<svg version="1.1" xmlns="http://www.w3.org/2000/svg" width="32" height="32" viewBox="0 0 32 32">
<title>ticket</title>
<path d="M28.042 8.014l-0.663 0.663c-0.542 0.542-1.262 0.84-2.028 0.84s-1.486-0.298-2.028-0.84c-0.542-0.542-0.84-1.262-0.84-2.028s0.298-1.486 0.84-2.028l0.663-0.663-3.958-3.958-20.029 20.029 3.958 3.958 0.663-0.663c0.542-0.542 1.262-0.84 2.028-0.84s1.486 0.298 2.028 0.84c0.542 0.542 0.84 1.262 0.84 2.028s-0.298 1.486-0.84 2.028l-0.663 0.663 3.958 3.958 20.029-20.029-3.958-3.958zM10.601 27.977c0.515-0.771 0.791-1.677 0.791-2.626 0-1.267-0.493-2.458-1.389-3.354s-2.087-1.389-3.354-1.389c-0.949 0-1.854 0.277-2.626 0.791l-1.371-1.371 17.377-17.377 1.371 1.371c-0.515 0.771-0.791 1.677-0.791 2.626 0 1.267 0.493 2.458 1.389 3.354s2.087 1.389 3.354 1.389c0.948 0 1.855-0.277 2.626-0.791l1.371 1.371-17.377 17.377-1.371-1.371z"></path>
<path d="M17.359 13.31l1.326-1.326 1.331 1.331-1.326 1.326-1.331-1.331z"></path>
<path d="M14.697 10.647l1.326-1.326 1.331 1.331-1.326 1.326-1.331-1.331z"></path>
<path d="M20.022 15.973l1.326-1.326 1.331 1.331-1.326 1.326-1.331-1.331z"></path>
</svg>
