<!-- Generated by IcoMoon.io -->
<svg version="1.1" xmlns="http://www.w3.org/2000/svg" width="26" height="32" viewBox="0 0 26 32">
<title>trekking</title>
<path d="M25.623 14.046c-0.048-1.466-1.285-2.614-2.752-2.614h-3.912l-2.405-3.607c0.019 0 0.037 0.001 0.056 0.001 2.045 0 3.698-1.712 3.602-3.778-0.086-1.845-1.584-3.343-3.429-3.429-2.066-0.097-3.778 1.556-3.778 3.602 0 0.669 0.184 1.296 0.503 1.834-0.302 0.045-0.59 0.139-0.853 0.277-0.314-0.446-0.764-0.798-1.309-0.991l-1.699-0.602c-1.409-0.499-2.953 0.237-3.452 1.646l-1.516 4.282c-1.271-0.214-2.553 0.508-2.998 1.763l-0.602 1.7c-0.498 1.406 0.241 2.954 1.647 3.452l3.399 1.204c0.471 0.167 0.974 0.203 1.472 0.095v4.264c0 0.301-0.151 0.583-0.401 0.75l-3.803 2.535c-1.243 0.829-1.579 2.506-0.75 3.751 0.832 1.246 2.513 1.576 3.75 0.75l5.409-3.606c0.752-0.502 1.204-1.346 1.204-2.25v-2.956l1.803 0.901v5.612c0 1.513 1.238 2.778 2.751 2.752 1.47-0.025 2.657-1.228 2.657-2.704v-7.332c0-1.031-0.573-1.958-1.495-2.419l-4.986-2.492 0.773-1.931 0.754 1.131c0.502 0.752 1.346 1.204 2.25 1.204h4.507v13.616c0 0.485 0.373 0.903 0.858 0.926 0.518 0.024 0.945-0.388 0.945-0.9v-13.797c1.076-0.382 1.841-1.426 1.801-2.64zM14.813 4.074c0.070-0.873 0.777-1.581 1.65-1.65 1.11-0.088 2.032 0.835 1.944 1.944-0.070 0.873-0.777 1.58-1.65 1.65-1.11 0.088-2.032-0.835-1.944-1.944zM7.894 6.987c0.166-0.47 0.681-0.715 1.151-0.549l1.699 0.602c0.351 0.124 0.584 0.447 0.6 0.81l-1.799 4.497-3.154-1.117 1.503-4.243zM6.726 17.087l-3.399-1.204c-0.469-0.166-0.715-0.682-0.549-1.151l0.602-1.699c0.166-0.469 0.682-0.715 1.151-0.549 0.349 0.123 3.996 1.415 4.344 1.538l-1.060 2.651c-0.209 0.38-0.666 0.563-1.089 0.413zM11.201 25.074c0 0.302-0.15 0.583-0.401 0.75l-5.409 3.606c-0.414 0.276-0.974 0.163-1.249-0.25-0.276-0.414-0.165-0.974 0.25-1.25l4.204-2.803c0.502-0.334 0.803-0.897 0.803-1.5v-3.311l1.803 0.901v3.857zM22.92 15.038h-5.409c-0.302 0-0.583-0.151-0.75-0.401l-1.704-2.557c-0.186-0.279-0.511-0.431-0.843-0.397s-0.619 0.251-0.744 0.562l-1.718 4.292c-0.174 0.435 0.014 0.931 0.434 1.141l5.728 2.863c0.306 0.153 0.499 0.465 0.499 0.807v7.306c0 0.485-0.372 0.903-0.856 0.926-0.518 0.026-0.947-0.388-0.947-0.9v-6.217c0-0.341-0.193-0.654-0.498-0.806l-6.215-3.108c-0.413-0.206-0.603-0.701-0.438-1.131l3.642-9.096c0.302-0.598 1.159-0.687 1.555-0.094l3.071 4.606c0.167 0.251 0.449 0.401 0.75 0.401h4.418c0.485 0 0.903 0.372 0.927 0.856 0.025 0.518-0.388 0.947-0.9 0.947z"></path>
</svg>
