<!-- Generated by IcoMoon.io -->
<svg version="1.1" xmlns="http://www.w3.org/2000/svg" width="32" height="32" viewBox="0 0 32 32">
<title>wind</title>
<path d="M0.436 16.949c1.893 1.624 4.038 3.464 8.189 3.464s6.296-1.84 8.189-3.464c1.79-1.536 3.336-2.862 6.561-2.862s4.771 1.326 6.561 2.862c0.524 0.449 1.313 0.389 1.763-0.135s0.389-1.313-0.135-1.763c-1.893-1.624-4.039-3.464-8.189-3.464s-6.296 1.84-8.189 3.464c-1.79 1.535-3.336 2.862-6.561 2.862s-4.771-1.326-6.561-2.862c-0.524-0.449-1.313-0.389-1.763 0.135s-0.389 1.313 0.135 1.763z"></path>
<path d="M0.436 10.112c1.893 1.624 4.038 3.464 8.189 3.464s6.296-1.84 8.189-3.464c1.79-1.536 3.336-2.862 6.561-2.862s4.771 1.326 6.561 2.862c0.524 0.45 1.313 0.389 1.763-0.135s0.389-1.313-0.135-1.763c-1.893-1.624-4.039-3.464-8.189-3.464s-6.296 1.84-8.189 3.464c-1.79 1.536-3.336 2.862-6.561 2.862s-4.771-1.326-6.561-2.862c-0.524-0.45-1.313-0.389-1.763 0.135s-0.389 1.313 0.135 1.763z"></path>
<path d="M31.564 21.888c-1.893-1.624-4.039-3.464-8.189-3.464s-6.296 1.84-8.189 3.464c-1.79 1.535-3.336 2.862-6.561 2.862s-4.771-1.326-6.561-2.862l-0-0c-0.524-0.449-1.313-0.389-1.763 0.135s-0.389 1.313 0.135 1.763c1.893 1.624 4.039 3.464 8.188 3.464s6.296-1.84 8.189-3.464c1.79-1.535 3.336-2.862 6.561-2.862s4.771 1.326 6.561 2.862c0.524 0.449 1.313 0.389 1.763-0.135s0.389-1.313-0.135-1.763z"></path>
</svg>
