<svg xmlns="http://www.w3.org/2000/svg" width="112" height="40" viewBox="0 0 112 40">
  <g id="logo_eparki" transform="translate(-32 -48)">
    <g id="background" transform="translate(32 48)" fill="#537e37" stroke-linecap="round">
      <path d="M 107.5232543945312 39.5 L 4.509828567504883 39.5 C 2.561128616333008 39.5 0.5 37.45320129394531 0.5 35.51804351806641 L 0.5 4.495085716247559 C 0.5 3.588528633117676 0.9783999919891357 2.571114301681519 1.779742836952209 1.773485660552979 C 2.580871343612671 0.9760714173316956 3.60185718536377 0.5 4.510871410369873 0.5 L 107.513671875 0.5 C 108.418815612793 0.5 109.4342575073242 0.9798142910003662 110.2299423217773 1.783499956130981 C 111.0252151489258 2.586757183074951 111.5 3.609857082366943 111.5 4.520285606384277 L 111.5 35.52880096435547 C 111.5 37.4587287902832 109.4558868408203 39.5 107.5232543945312 39.5 Z" stroke="none"/>
      <path d="M 4.5108642578125 1 C 3.731109619140625 1 2.841987609863281 1.421630859375 2.132461547851562 2.127861022949219 C 1.423355102539062 2.833690643310547 1 3.718647003173828 1 4.495090484619141 L 1 35.51804733276367 C 1 37.17766189575195 2.836921691894531 39 4.509834289550781 39 L 107.5232467651367 39 C 109.1803817749023 39 111 37.18329238891602 111 35.52880096435547 L 111 4.520294189453125 C 111 3.738632202148438 110.5793075561523 2.847030639648438 109.8746337890625 2.135276794433594 C 109.1708145141602 1.424400329589844 108.288215637207 1 107.5136795043945 1 L 4.5108642578125 1 M 4.5108642578125 0 L 107.5136795043945 0 C 109.7228012084961 0 112 2.311153411865234 112 4.520294189453125 L 112 35.52880096435547 C 112 37.73793792724609 109.7323837280273 40 107.5232467651367 40 L 4.509834289550781 40 C 2.300689697265625 40 0 37.7271842956543 0 35.51804733276367 L 0 4.495090484619141 C 0 2.285953521728516 2.301719665527344 0 4.5108642578125 0 Z" stroke="none" fill="#537e37"/>
    </g>
    <g id="border" transform="translate(33 49)" fill="none" stroke-linecap="round">
      <path d="M4,0H106a4,4,0,0,1,4,4V34a4,4,0,0,1-4,4H4a4,4,0,0,1-4-4V4A4,4,0,0,1,4,0Z" stroke="none"/>
      <path d="M 4 1 C 2.345802307128906 1 1 2.345798492431641 1 4 L 1 34 C 1 35.65420150756836 2.345802307128906 37 4 37 L 106 37 C 107.6541976928711 37 109 35.65420150756836 109 34 L 109 4 C 109 2.345798492431641 107.6541976928711 1 106 1 L 4 1 M 4 0 L 106 0 C 108.2091293334961 0 110 1.790855407714844 110 4 L 110 34 C 110 36.20914459228516 108.2091293334961 38 106 38 L 4 38 C 1.790855407714844 38 0 36.20914459228516 0 34 L 0 4 C 0 1.790855407714844 1.790855407714844 0 4 0 Z" stroke="none" fill="#fafafa"/>
    </g>
    <path id="text" d="M3.752,20.584Q4.4,23.728,7.88,23.728A4.749,4.749,0,0,0,9.7,23.392a5.339,5.339,0,0,0,1.3-.72,1.021,1.021,0,0,1,.576.912.934.934,0,0,1-.3.648,2.7,2.7,0,0,1-.816.552,5.568,5.568,0,0,1-1.2.384,7.162,7.162,0,0,1-1.476.144A6.2,6.2,0,0,1,3.38,23.8a5.749,5.749,0,0,1-1.62-4.416,6.977,6.977,0,0,1,.4-2.436,5.225,5.225,0,0,1,1.1-1.812A4.755,4.755,0,0,1,4.952,14a5.668,5.668,0,0,1,2.136-.4,5.378,5.378,0,0,1,1.992.36,4.563,4.563,0,0,1,1.572,1.02,4.741,4.741,0,0,1,1.032,1.56,5.134,5.134,0,0,1,.372,1.98,1.008,1.008,0,0,1-.24.756,1.126,1.126,0,0,1-.672.276ZM7.064,15.16A3.187,3.187,0,0,0,4.64,16.18,4.26,4.26,0,0,0,3.632,19.1l6.6-.912a3.526,3.526,0,0,0-.924-2.172A2.936,2.936,0,0,0,7.064,15.16Zm10.08,4.632v5.16Q17,25,16.76,25.06a2.176,2.176,0,0,1-.528.06q-1.056,0-1.056-.888V11.464a.826.826,0,0,1,.192-.588,1.324,1.324,0,0,1,.6-.324,8.552,8.552,0,0,1,1.692-.312q1-.1,1.932-.1a6.462,6.462,0,0,1,4.452,1.284,4.468,4.468,0,0,1,1.4,3.468,4.621,4.621,0,0,1-1.44,3.564,6.364,6.364,0,0,1-4.44,1.332Zm2.3-1.632a4.877,4.877,0,0,0,2.976-.792A2.861,2.861,0,0,0,23.48,14.92a2.776,2.776,0,0,0-1.02-2.388,4.833,4.833,0,0,0-2.916-.756q-.648,0-1.284.06t-1.14.156V18.16Zm12.72,5.592a5.748,5.748,0,0,0,1.668-.2,3.892,3.892,0,0,0,.948-.4v-3.48l-2.976.312a3.736,3.736,0,0,0-1.848.564,1.525,1.525,0,0,0-.6,1.308,1.616,1.616,0,0,0,.7,1.4A3.675,3.675,0,0,0,32.168,23.752ZM32.144,13.6a5.322,5.322,0,0,1,3.312.936,3.479,3.479,0,0,1,1.224,2.952v5.688a1.34,1.34,0,0,1-.2.8,2.021,2.021,0,0,1-.612.516,6.253,6.253,0,0,1-1.524.588,8.482,8.482,0,0,1-2.172.252,5.913,5.913,0,0,1-3.492-.888A2.967,2.967,0,0,1,27.44,21.88a2.841,2.841,0,0,1,1.032-2.388,5.591,5.591,0,0,1,2.9-1l3.408-.336v-.672a2.068,2.068,0,0,0-.72-1.752,3.118,3.118,0,0,0-1.944-.552,6.109,6.109,0,0,0-1.9.288,10.508,10.508,0,0,0-1.584.648,2.286,2.286,0,0,1-.348-.384.8.8,0,0,1-.156-.48A.873.873,0,0,1,28.3,14.7a1.632,1.632,0,0,1,.528-.408,5.914,5.914,0,0,1,1.488-.516A8.7,8.7,0,0,1,32.144,13.6ZM42.1,24.952a3,3,0,0,1-.36.108,2.176,2.176,0,0,1-.528.06q-1.032,0-1.032-.864V16.12a1.632,1.632,0,0,1,.2-.876,2.218,2.218,0,0,1,.684-.636,6.179,6.179,0,0,1,1.692-.708,8.924,8.924,0,0,1,2.412-.3q1.92,0,1.92.96a1.325,1.325,0,0,1-.072.444,1.12,1.12,0,0,1-.192.348q-.24-.048-.624-.1a6.186,6.186,0,0,0-.768-.048,7.453,7.453,0,0,0-1.944.228,6.093,6.093,0,0,0-1.392.54Zm9.216,0a3,3,0,0,1-.36.108,2.176,2.176,0,0,1-.528.06q-1.032,0-1.032-.864V9.448a2.887,2.887,0,0,1,.372-.108,2.327,2.327,0,0,1,.54-.06q1.008,0,1.008.864v8.64L56.576,13.7a1.542,1.542,0,0,1,.9.276.8.8,0,0,1,.324.66.876.876,0,0,1-.216.588,7.616,7.616,0,0,1-.576.588l-3.864,3.384,5.352,4.8a1.426,1.426,0,0,1-.324.84.929.929,0,0,1-.732.312,1.259,1.259,0,0,1-.66-.18,2.873,2.873,0,0,1-.612-.516L51.32,19.576Zm11.76,0a3,3,0,0,1-.36.108,2.176,2.176,0,0,1-.528.06q-1.032,0-1.032-.864V13.96a2.888,2.888,0,0,1,.372-.108,2.327,2.327,0,0,1,.54-.06q1.008,0,1.008.888ZM60.872,10.408a1.159,1.159,0,0,1,.348-.852,1.218,1.218,0,0,1,.9-.348,1.2,1.2,0,1,1,0,2.4,1.218,1.218,0,0,1-.9-.348A1.159,1.159,0,0,1,60.872,10.408Zm4.536,13.584a1.376,1.376,0,0,1,.348-.96,1.245,1.245,0,0,1,.972-.384,1.207,1.207,0,0,1,.96.384,1.405,1.405,0,0,1,.336.96,1.372,1.372,0,0,1-.336.936,1.207,1.207,0,0,1-.96.384,1.245,1.245,0,0,1-.972-.384A1.344,1.344,0,0,1,65.408,23.992Zm9.528,1.32a6.319,6.319,0,0,1-1.584-.192,5.325,5.325,0,0,1-1.224-.456V29.32a3,3,0,0,1-.36.108,2.176,2.176,0,0,1-.528.06q-1.032,0-1.032-.888V15.928a1.518,1.518,0,0,1,.168-.768,1.927,1.927,0,0,1,.7-.6,9.177,9.177,0,0,1,1.548-.66,6.478,6.478,0,0,1,2.052-.3,7.2,7.2,0,0,1,2.22.336,4.7,4.7,0,0,1,1.8,1.044,4.986,4.986,0,0,1,1.2,1.812,7.067,7.067,0,0,1,.444,2.64,7.677,7.677,0,0,1-.4,2.592,4.963,4.963,0,0,1-1.116,1.836,4.535,4.535,0,0,1-1.716,1.092A6.345,6.345,0,0,1,74.936,25.312Zm-.264-1.584a3.65,3.65,0,0,0,2.7-1.02,4.49,4.49,0,0,0,1.02-3.276,5.8,5.8,0,0,0-.3-1.992,3.5,3.5,0,0,0-.816-1.32,2.99,2.99,0,0,0-1.188-.72,4.6,4.6,0,0,0-1.416-.216,4.347,4.347,0,0,0-1.464.216,7.543,7.543,0,0,0-1.08.48v7.08a4.029,4.029,0,0,0,1.08.552A4.479,4.479,0,0,0,74.672,23.728Zm10.752,1.224a3,3,0,0,1-.36.108,2.176,2.176,0,0,1-.528.06q-1.032,0-1.032-.864V9.448a2.888,2.888,0,0,1,.372-.108,2.22,2.22,0,0,1,.516-.06q1.032,0,1.032.864Z" transform="translate(44.576 49.512)" fill="#fafafa"/>
  </g>
</svg>
